<svg width="50" height="50" viewBox="0 0 50 50" fill="none" xmlns="http://www.w3.org/2000/svg">
<g clip-path="url(#clip0_145_648)">
<path d="M21.875 33.4063L15.425 26.9583C14.8391 26.3721 14.0442 26.0426 13.2154 26.0424C12.3865 26.0423 11.5915 26.3713 11.0052 26.9573C10.419 27.5433 10.0896 28.3381 10.0894 29.167C10.0892 29.9958 10.4182 30.7908 11.0042 31.3771L22.7896 43.1625C23.0798 43.4529 23.4244 43.6833 23.8037 43.8404C24.183 43.9976 24.5895 44.0785 25 44.0785C25.4106 44.0785 25.8171 43.9976 26.1964 43.8404C26.5756 43.6833 26.9202 43.4529 27.2104 43.1625L38.9959 31.3792C39.2861 31.0889 39.5164 30.7443 39.6735 30.365C39.8306 29.9858 39.9114 29.5793 39.9114 29.1688C39.9114 28.7582 39.8306 28.3517 39.6735 27.9725C39.5164 27.5932 39.2861 27.2486 38.9959 26.9583C38.7056 26.6681 38.361 26.4378 37.9817 26.2807C37.6024 26.1236 37.196 26.0428 36.7854 26.0428C36.3749 26.0428 35.9684 26.1236 35.5892 26.2807C35.2099 26.4378 34.8653 26.6681 34.575 26.9583L28.125 33.4063V9.375C28.125 8.5462 27.7958 7.75134 27.2097 7.16529C26.6237 6.57924 25.8288 6.25 25 6.25C24.1712 6.25 23.3764 6.57924 22.7903 7.16529C22.2043 7.75134 21.875 8.5462 21.875 9.375V33.4063Z" fill="white"/>
</g>
<defs>
<clipPath id="clip0_145_648">
<rect width="50" height="50" fill="white"/>
</clipPath>
</defs>
</svg>
