<svg width="21" height="15" viewBox="0 0 21 15" fill="none" xmlns="http://www.w3.org/2000/svg">
<path fill-rule="evenodd" clip-rule="evenodd" d="M1.64567 0.208496C1.3694 0.208496 1.10445 0.318243 0.909101 0.513593C0.713751 0.708944 0.604004 0.973896 0.604004 1.25016C0.604004 1.52643 0.713751 1.79138 0.909101 1.98673C1.10445 2.18208 1.3694 2.29183 1.64567 2.29183H19.354C19.6303 2.29183 19.8952 2.18208 20.0906 1.98673C20.2859 1.79138 20.3957 1.52643 20.3957 1.25016C20.3957 0.973896 20.2859 0.708944 20.0906 0.513593C19.8952 0.318243 19.6303 0.208496 19.354 0.208496H1.64567ZM0.604004 7.50016C0.604004 7.2239 0.713751 6.95894 0.909101 6.76359C1.10445 6.56824 1.3694 6.4585 1.64567 6.4585H19.354C19.6303 6.4585 19.8952 6.56824 20.0906 6.76359C20.2859 6.95894 20.3957 7.2239 20.3957 7.50016C20.3957 7.77643 20.2859 8.04138 20.0906 8.23673C19.8952 8.43208 19.6303 8.54183 19.354 8.54183H1.64567C1.3694 8.54183 1.10445 8.43208 0.909101 8.23673C0.713751 8.04138 0.604004 7.77643 0.604004 7.50016ZM0.604004 13.7512C0.604004 13.4749 0.713751 13.21 0.909101 13.0146C1.10445 12.8193 1.3694 12.7095 1.64567 12.7095H19.354C19.6303 12.7095 19.8952 12.8193 20.0906 13.0146C20.2859 13.21 20.3957 13.4749 20.3957 13.7512C20.3957 14.0275 20.2859 14.2924 20.0906 14.4878C19.8952 14.6831 19.6303 14.7929 19.354 14.7929H1.64567C1.3694 14.7929 1.10445 14.6831 0.909101 14.4878C0.713751 14.2924 0.604004 14.0275 0.604004 13.7512Z" fill="white"/>
</svg>
