<svg width="85" height="85" viewBox="0 0 85 85" fill="none" xmlns="http://www.w3.org/2000/svg">
<g clip-path="url(#clip0_263_1027)">
<path d="M84.2245 68.2869L58.4376 42.5L84.2245 16.7131C84.7186 16.213 84.9957 15.5382 84.9957 14.8352C84.9957 14.1321 84.7186 13.4574 84.2245 12.9572L72.0429 0.775639C71.5448 0.277669 70.8693 -0.0020752 70.165 -0.0020752C69.4606 -0.0020752 68.7851 0.277669 68.287 0.775639L42.5001 26.5625L16.7133 0.775639C16.2151 0.277669 15.5396 -0.0020752 14.8353 -0.0020752C14.1309 -0.0020752 13.4554 0.277669 12.9573 0.775639L0.775761 12.9572C0.277791 13.4553 -0.00195313 14.1308 -0.00195312 14.8352C-0.00195313 15.5395 0.277791 16.215 0.775761 16.7131L26.5626 42.5L0.775761 68.2869C0.277791 68.785 -0.00195312 69.4605 -0.00195312 70.1649C-0.00195312 70.8692 0.277791 71.5447 0.775761 72.0428L12.9573 84.2244C13.4554 84.7224 14.1309 85.0021 14.8353 85.0021C15.5396 85.0021 16.2151 84.7224 16.7133 84.2244L42.5001 58.4375L68.287 84.2244C68.7851 84.7224 69.4606 85.0021 70.165 85.0021C70.8693 85.0021 71.5448 84.7224 72.0429 84.2244L84.2245 72.0428C84.7225 71.5447 85.0022 70.8692 85.0022 70.1649C85.0022 69.4605 84.7225 68.785 84.2245 68.2869Z" fill="white"/>
</g>
<defs>
<clipPath id="clip0_263_1027">
<rect width="85" height="85" fill="white"/>
</clipPath>
</defs>
</svg>
