<svg width="360" height="125" viewBox="0 0 360 125" fill="none" xmlns="http://www.w3.org/2000/svg">
<g clip-path="url(#clip0_308_1002)">
<mask id="mask0_308_1002" style="mask-type:luminance" maskUnits="userSpaceOnUse" x="0" y="0" width="360" height="125">
<path d="M360 0H0V125H360V0Z" fill="white"/>
</mask>
<g mask="url(#mask0_308_1002)">
<path d="M0 0H27.8025C35.2005 0 42.002 0.951475 48.0875 2.97336C54.173 4.99524 59.3039 7.9686 63.5996 12.1313C67.8953 16.294 71.2363 21.5271 73.6228 27.8306C76.0093 34.2531 77.2025 41.746 77.2025 50.5471C77.2025 59.3482 76.0093 66.96 73.6228 73.3825C71.2363 79.805 68.0146 85.157 63.7189 89.4386C59.4233 93.7203 54.4117 96.8126 48.5648 98.9534C42.7179 101.094 36.1551 102.046 29.115 102.046H0V0ZM26.4899 83.373C30.4276 83.373 34.1266 82.7783 37.3484 81.7079C40.6894 80.5186 43.4339 78.7345 45.8204 76.118C48.2068 73.6204 49.9967 70.1713 51.3092 66.0086C52.6218 61.8459 53.2184 56.6128 53.2184 50.5471C53.2184 44.4814 52.6218 39.3673 51.3092 35.3235C49.9967 31.1608 48.2068 27.9496 45.8204 25.452C43.4339 22.9543 40.6894 21.2892 37.3484 20.2188C34.0073 19.1484 30.4276 18.6727 26.4899 18.6727H23.1488V83.4919H26.4899V83.373Z" fill="white"/>
<path d="M84.6006 0H108.107L111.448 54.353C111.568 58.7536 111.687 63.0352 111.806 67.3168C111.926 71.5985 112.045 75.8801 112.164 80.2807H112.642C113.477 75.8801 114.432 71.5985 115.386 67.3168C116.341 63.0352 117.295 58.7536 118.131 54.353L125.171 26.0466H139.132L145.933 54.353C146.768 58.5157 147.604 62.7973 148.558 67.1979C149.513 71.5985 150.348 75.9991 151.183 80.3996H151.78C152.019 75.9991 152.138 71.7174 152.138 67.3168C152.138 63.0352 152.377 58.6346 152.496 54.353L155.598 0H177.554L164.786 102.046H140.563L134.12 69.9334C133.523 66.7222 132.927 63.392 132.449 59.9429C131.972 56.6128 131.614 53.4015 131.376 50.3092H130.898C130.54 53.2826 130.182 56.4938 129.705 59.9429C129.228 63.392 128.631 66.6032 128.034 69.9334L121.949 102.046H98.3228L84.6006 0Z" fill="white"/>
<path d="M213.709 19.3863H183.043V0H267.524V19.3863H236.858V102.046H213.59V19.3863H213.709Z" fill="white"/>
<path d="M360 102.046H290.196V125H360V102.046Z" fill="#FCDC02"/>
</g>
</g>
<defs>
<clipPath id="clip0_308_1002">
<rect width="360" height="125" fill="white"/>
</clipPath>
</defs>
</svg>
