<svg width="500" height="500" viewBox="0 0 500 500" fill="none" xmlns="http://www.w3.org/2000/svg">
<path d="M250 41.667C222.641 41.667 195.551 47.0557 170.274 57.5254C144.998 67.9952 122.032 83.3409 102.686 102.686C63.6161 141.756 41.6667 194.747 41.6667 250C41.6667 342.084 101.458 420.209 184.167 447.917C194.583 449.584 197.917 443.125 197.917 437.5V402.292C140.208 414.792 127.917 374.375 127.917 374.375C118.333 350.209 104.792 343.75 104.792 343.75C85.8334 330.834 106.25 331.25 106.25 331.25C127.083 332.709 138.125 352.709 138.125 352.709C156.25 384.375 186.875 375 198.75 370C200.625 356.459 206.042 347.292 211.875 342.084C165.625 336.875 117.083 318.959 117.083 239.584C117.083 216.459 125 197.917 138.542 183.125C136.458 177.917 129.167 156.25 140.625 128.125C140.625 128.125 158.125 122.5 197.917 149.375C214.375 144.792 232.292 142.5 250 142.5C267.708 142.5 285.625 144.792 302.083 149.375C341.875 122.5 359.375 128.125 359.375 128.125C370.833 156.25 363.542 177.917 361.458 183.125C375 197.917 382.917 216.459 382.917 239.584C382.917 319.167 334.167 336.667 287.708 341.875C295.208 348.334 302.083 361.042 302.083 380.417V437.5C302.083 443.125 305.417 449.792 316.042 447.917C398.75 420 458.333 342.084 458.333 250C458.333 222.642 452.945 195.551 442.475 170.275C432.005 144.998 416.66 122.032 397.314 102.686C377.968 83.3409 355.002 67.9952 329.726 57.5254C304.45 47.0557 277.359 41.667 250 41.667Z" fill="white"/>
</svg>
