<svg width="500" height="500" viewBox="0 0 500 500" fill="none" xmlns="http://www.w3.org/2000/svg">
<path d="M162.5 41.667H337.5C404.167 41.667 458.333 95.8337 458.333 162.5V337.5C458.333 369.547 445.603 400.282 422.942 422.942C400.281 445.603 369.547 458.334 337.5 458.334H162.5C95.8332 458.334 41.6665 404.167 41.6665 337.5V162.5C41.6665 130.453 54.3971 99.7189 77.0578 77.0583C99.7184 54.3976 130.453 41.667 162.5 41.667ZM158.333 83.3337C138.442 83.3337 119.365 91.2354 105.3 105.301C91.2349 119.366 83.3332 138.442 83.3332 158.334V341.667C83.3332 383.125 116.875 416.667 158.333 416.667H341.667C361.558 416.667 380.634 408.765 394.7 394.7C408.765 380.635 416.667 361.558 416.667 341.667V158.334C416.667 116.875 383.125 83.3337 341.667 83.3337H158.333ZM359.375 114.584C366.282 114.584 372.905 117.327 377.789 122.211C382.673 127.095 385.417 133.719 385.417 140.625C385.417 147.532 382.673 154.156 377.789 159.04C372.905 163.923 366.282 166.667 359.375 166.667C352.468 166.667 345.844 163.923 340.961 159.04C336.077 154.156 333.333 147.532 333.333 140.625C333.333 133.719 336.077 127.095 340.961 122.211C345.844 117.327 352.468 114.584 359.375 114.584ZM250 145.834C277.627 145.834 304.122 156.808 323.657 176.343C343.192 195.878 354.167 222.374 354.167 250C354.167 277.627 343.192 304.122 323.657 323.657C304.122 343.192 277.627 354.167 250 354.167C222.373 354.167 195.878 343.192 176.343 323.657C156.808 304.122 145.833 277.627 145.833 250C145.833 222.374 156.808 195.878 176.343 176.343C195.878 156.808 222.373 145.834 250 145.834ZM250 187.5C233.424 187.5 217.527 194.085 205.806 205.806C194.085 217.527 187.5 233.424 187.5 250C187.5 266.576 194.085 282.473 205.806 294.195C217.527 305.916 233.424 312.5 250 312.5C266.576 312.5 282.473 305.916 294.194 294.195C305.915 282.473 312.5 266.576 312.5 250C312.5 233.424 305.915 217.527 294.194 205.806C282.473 194.085 266.576 187.5 250 187.5Z" fill="white"/>
</svg>
