<svg width="500" height="500" viewBox="0 0 500 500" fill="none" xmlns="http://www.w3.org/2000/svg">
<path d="M467.917 125C451.875 132.291 434.583 137.083 416.667 139.375C435 128.333 449.167 110.833 455.833 89.7913C438.542 100.208 419.375 107.5 399.167 111.666C382.708 93.7497 359.583 83.333 333.333 83.333C284.375 83.333 244.375 123.333 244.375 172.708C244.375 179.791 245.208 186.666 246.667 193.125C172.5 189.375 106.458 153.75 62.5002 99.7913C54.7918 112.916 50.4168 128.333 50.4168 144.583C50.4168 175.625 66.0418 203.125 90.2085 218.75C75.4168 218.75 61.6668 214.583 49.5835 208.333V208.958C49.5835 252.291 80.4168 288.541 121.25 296.666C108.143 300.269 94.3759 300.768 81.0418 298.125C86.7003 315.885 97.7822 331.425 112.73 342.561C127.677 353.697 145.739 359.868 164.375 360.208C132.785 385.219 93.6254 398.737 53.3335 398.541C46.2502 398.541 39.1668 398.125 32.0835 397.291C71.6668 422.708 118.75 437.5 169.167 437.5C333.333 437.5 423.542 301.25 423.542 183.125C423.542 179.166 423.542 175.416 423.333 171.458C440.833 158.958 455.833 143.125 467.917 125Z" fill="white"/>
</svg>
